<svg xmlns="http://www.w3.org/2000/svg" xmlns:xlink="http://www.w3.org/1999/xlink" width="500" zoomAndPan="magnify" viewBox="0 0 375 374.999991" height="500" preserveAspectRatio="xMidYMid meet" version="1.0"><defs><clipPath id="745c93f6e7"><path d="M 124 91.363281 L 226 91.363281 L 226 283.363281 L 124 283.363281 Z M 124 91.363281 " clip-rule="nonzero"/></clipPath></defs><path fill="#ff914d" d="M 16.480469 233.121094 L 22.25 245.460938 L 10.714844 245.460938 Z M 16.070312 225.917969 L 0 259.867188 L 3.914062 259.867188 L 9.066406 248.757812 L 23.695312 248.757812 L 29.050781 259.867188 L 32.761719 259.867188 L 16.894531 225.917969 Z M 16.070312 225.917969 " fill-opacity="1" fill-rule="nonzero"/><path fill="#ff914d" d="M 44.503906 225.917969 L 47.800781 225.917969 L 47.800781 256.574219 L 60.78125 256.574219 L 60.78125 259.867188 L 44.5 259.867188 Z M 44.503906 225.917969 " fill-opacity="1" fill-rule="nonzero"/><path fill="#ff914d" d="M 82.210938 243.617188 L 82.210938 256.578125 L 86.332031 256.578125 C 88.183594 256.734375 89.96875 256.460938 91.6875 255.757812 C 92.257812 255.546875 92.785156 255.253906 93.265625 254.886719 C 93.746094 254.515625 94.160156 254.082031 94.507812 253.585938 C 94.859375 253.089844 95.125 252.554688 95.3125 251.976562 C 95.5 251.402344 95.597656 250.808594 95.601562 250.203125 C 95.632812 249.480469 95.523438 248.78125 95.273438 248.105469 C 95.023438 247.425781 94.652344 246.824219 94.160156 246.292969 C 92.996094 245.164062 91.621094 244.410156 90.042969 244.03125 C 88.070312 243.617188 86.078125 243.480469 84.066406 243.617188 Z M 82.210938 229.214844 L 82.210938 240.121094 L 84.066406 240.121094 C 85.8125 240.199219 87.527344 239.996094 89.210938 239.503906 C 90.378906 239.175781 91.273438 238.488281 91.890625 237.445312 C 92.515625 236.511719 92.859375 235.480469 92.917969 234.359375 C 92.953125 233.648438 92.824219 232.964844 92.535156 232.3125 C 92.246094 231.660156 91.824219 231.109375 91.273438 230.65625 C 89.703125 229.644531 87.988281 229.164062 86.121094 229.214844 Z M 78.707031 225.925781 L 85.507812 225.925781 C 87.636719 225.855469 89.699219 226.199219 91.6875 226.957031 C 93.09375 227.628906 94.261719 228.585938 95.191406 229.835938 C 96.019531 231.230469 96.433594 232.738281 96.425781 234.363281 C 96.429688 235.859375 96.019531 237.230469 95.191406 238.476562 C 94.519531 239.820312 93.488281 240.78125 92.101562 241.355469 C 93.496094 241.867188 94.800781 242.554688 96.015625 243.414062 C 97.074219 244.21875 97.832031 245.246094 98.28125 246.496094 C 98.902344 247.65625 99.175781 248.890625 99.105469 250.203125 C 99.121094 251.507812 98.859375 252.753906 98.316406 253.941406 C 97.777344 255.128906 97.011719 256.144531 96.015625 256.992188 C 94.957031 257.980469 93.75 258.722656 92.390625 259.222656 C 91.035156 259.722656 89.632812 259.941406 88.183594 259.875 L 78.707031 259.875 Z M 78.707031 225.925781 " fill-opacity="1" fill-rule="nonzero"/><path fill="#ff914d" d="M 125.273438 233.121094 L 119.507812 245.460938 L 131.042969 245.460938 Z M 125.6875 225.917969 L 141.550781 259.867188 L 137.839844 259.867188 L 132.484375 248.757812 L 118.0625 248.757812 L 112.707031 259.867188 L 108.984375 259.867188 L 124.851562 225.917969 Z M 125.6875 225.917969 " fill-opacity="1" fill-rule="nonzero"/><path fill="#ff914d" d="M 151.648438 253.492188 L 154.53125 251.847656 C 156.59375 255.546875 158.859375 257.398438 161.539062 257.398438 C 162.652344 257.445312 163.683594 257.171875 164.628906 256.578125 C 165.632812 256.167969 166.390625 255.480469 166.894531 254.519531 C 167.492188 253.652344 167.765625 252.691406 167.71875 251.640625 C 167.660156 250.453125 167.320312 249.355469 166.6875 248.347656 C 164.964844 246.265625 162.972656 244.480469 160.710938 243 C 158.820312 241.613281 157.101562 240.035156 155.5625 238.265625 C 154.347656 236.765625 153.730469 235.050781 153.707031 233.121094 C 153.734375 231.671875 154.074219 230.300781 154.738281 229.007812 C 155.566406 227.832031 156.597656 226.871094 157.828125 226.125 C 159.121094 225.464844 160.496094 225.121094 161.949219 225.097656 C 163.570312 225.09375 165.082031 225.503906 166.480469 226.332031 C 168.238281 227.457031 169.679688 228.898438 170.808594 230.652344 L 168.128906 232.710938 C 167.1875 231.457031 166.089844 230.359375 164.832031 229.417969 C 163.933594 228.925781 162.972656 228.652344 161.949219 228.597656 C 160.621094 228.5625 159.453125 228.976562 158.441406 229.832031 C 158.03125 230.238281 157.71875 230.710938 157.503906 231.246094 C 157.289062 231.78125 157.191406 232.339844 157.207031 232.917969 C 157.246094 233.6875 157.382812 234.441406 157.621094 235.179688 C 158.164062 235.996094 158.78125 236.75 159.476562 237.441406 C 159.886719 237.851562 161.328125 238.882812 163.800781 240.734375 C 166.09375 242.339844 168.085938 244.261719 169.777344 246.492188 C 170.800781 248.054688 171.351562 249.769531 171.421875 251.636719 C 171.453125 252.863281 171.214844 254.039062 170.710938 255.15625 C 170.203125 256.273438 169.480469 257.226562 168.535156 258.015625 C 167.640625 258.914062 166.597656 259.59375 165.417969 260.058594 C 164.234375 260.527344 163.007812 260.734375 161.738281 260.691406 C 159.695312 260.785156 157.839844 260.234375 156.175781 259.046875 C 154.183594 257.582031 152.675781 255.730469 151.644531 253.488281 " fill-opacity="1" fill-rule="nonzero"/><path fill="#ff914d" d="M 222.734375 233.121094 L 216.964844 245.460938 L 228.5 245.460938 Z M 223.144531 225.917969 L 239.007812 259.867188 L 235.300781 259.867188 L 230.148438 248.757812 L 215.519531 248.757812 L 210.164062 259.867188 L 206.25 259.867188 L 222.320312 225.917969 Z M 223.144531 225.917969 " fill-opacity="1" fill-rule="nonzero"/><path fill="#ff914d" d="M 248.074219 229.210938 L 248.074219 225.917969 L 266.824219 225.917969 L 266.824219 229.210938 L 259.203125 229.210938 L 259.203125 259.867188 L 255.699219 259.867188 L 255.699219 229.210938 Z M 248.074219 229.210938 " fill-opacity="1" fill-rule="nonzero"/><path fill="#ff914d" d="M 282.488281 225.917969 L 302.0625 225.917969 L 302.0625 229.207031 L 285.988281 229.207031 L 285.988281 239.90625 L 301.855469 239.90625 L 301.855469 243.195312 L 285.988281 243.195312 L 285.988281 256.570312 L 301.855469 256.570312 L 301.855469 259.859375 L 282.484375 259.859375 Z M 282.488281 225.917969 " fill-opacity="1" fill-rule="nonzero"/><path fill="#ff914d" d="M 317.308594 225.917969 L 336.675781 225.917969 L 336.675781 229.207031 L 320.601562 229.207031 L 320.601562 239.90625 L 336.675781 239.90625 L 336.675781 243.195312 L 320.601562 243.195312 L 320.601562 256.570312 L 336.675781 256.570312 L 336.675781 259.859375 L 317.308594 259.859375 Z M 317.308594 225.917969 " fill-opacity="1" fill-rule="nonzero"/><path fill="#ff914d" d="M 371.703125 225.917969 L 371.703125 252.050781 L 349.242188 225.917969 L 348.417969 225.917969 L 348.417969 259.867188 L 351.921875 259.867188 L 351.921875 234.144531 L 374.382812 259.867188 L 375 259.867188 L 375 225.917969 Z M 371.703125 225.917969 " fill-opacity="1" fill-rule="nonzero"/><g clip-path="url(#745c93f6e7)"><path fill="#9fc55d" d="M 124.363281 195.316406 C 134.011719 169.597656 144.789062 144.082031 155.949219 118.980469 C 158.785156 112.808594 164.269531 100.257812 167.109375 94.082031 C 167.324219 93.601562 167.617188 93.171875 167.984375 92.789062 C 168.351562 92.410156 168.773438 92.101562 169.246094 91.871094 C 169.722656 91.636719 170.222656 91.488281 170.75 91.429688 C 171.273438 91.371094 171.792969 91.402344 172.308594 91.523438 C 172.824219 91.644531 173.300781 91.851562 173.746094 92.140625 C 174.1875 92.425781 174.570312 92.78125 174.890625 93.203125 C 175.207031 93.625 175.445312 94.085938 175.605469 94.59375 C 175.761719 95.097656 175.828125 95.613281 175.804688 96.140625 C 177.320312 128.855469 181.300781 264.65625 205.117188 279.054688 C 212.871094 283.378906 220.246094 275.765625 225.539062 270.003906 C 221.945312 275.765625 217.21875 281.523438 210.789062 283.171875 C 198.878906 285.226562 191.691406 269.382812 187.71875 259.714844 C 181.703125 242.226562 177.417969 224.324219 174.863281 206.011719 C 169.773438 169.628906 167.0625 133.074219 166.730469 96.34375 L 175.242188 98.605469 C 167.492188 114.65625 158.792969 131.734375 150.664062 147.371094 C 142.148438 163.421875 133.453125 179.671875 124.375 195.3125 " fill-opacity="1" fill-rule="nonzero"/></g></svg>